<svg xmlns="http://www.w3.org/2000/svg" width="407.632" height="285.468" viewBox="0 0 407.632 285.468">
  <g id="Group_100" data-name="Group 100" transform="translate(-1064.667 -469.19)">
    <g id="Icon_feather-book-open" data-name="Icon feather-book-open" transform="translate(1066.619 600.854) rotate(-22)" opacity="0.51">
      <path id="Path_17" data-name="Path 17" d="M0,0H28.984A19.322,19.322,0,0,1,48.306,19.322V86.951A14.492,14.492,0,0,0,33.814,72.459H0Z" transform="translate(0 0)" fill="none" stroke="#979797" stroke-linecap="round" stroke-linejoin="round" stroke-width="3"/>
      <path id="Path_18" data-name="Path 18" d="M48.306,0H19.322A19.322,19.322,0,0,0,0,19.322V86.951A14.492,14.492,0,0,1,14.492,72.459H48.306Z" transform="translate(48.306 0)" fill="none" stroke="#979797" stroke-linecap="round" stroke-linejoin="round" stroke-width="3"/>
    </g>
    <g id="Icon_feather-book-open-2" data-name="Icon feather-book-open" transform="matrix(0.839, 0.545, -0.545, 0.839, 1292.59, 471.265)" opacity="0.51">
      <path id="Path_17-2" data-name="Path 17" d="M0,0H63.541A42.361,42.361,0,0,1,105.9,42.361V190.624a31.771,31.771,0,0,0-31.771-31.771H0Z" transform="translate(0 0)" fill="none" stroke="#979797" stroke-linecap="round" stroke-linejoin="round" stroke-width="3"/>
      <path id="Path_18-2" data-name="Path 18" d="M105.9,0H42.361A42.361,42.361,0,0,0,0,42.361V190.624a31.771,31.771,0,0,1,31.771-31.771H105.9Z" transform="translate(105.902 0)" fill="none" stroke="#979797" stroke-linecap="round" stroke-linejoin="round" stroke-width="3"/>
    </g>
    <g id="Icon_feather-book-open-3" data-name="Icon feather-book-open" transform="translate(1186.769 702.298) rotate(20)" opacity="0.51">
      <path id="Path_17-3" data-name="Path 17" d="M0,0H12.739a8.493,8.493,0,0,1,8.493,8.493V38.218a6.37,6.37,0,0,0-6.37-6.37H0Z" transform="translate(0 0)" fill="none" stroke="#979797" stroke-linecap="round" stroke-linejoin="round" stroke-width="3"/>
      <path id="Path_18-3" data-name="Path 18" d="M21.232,0H8.493A8.493,8.493,0,0,0,0,8.493V38.218a6.37,6.37,0,0,1,6.37-6.37H21.232Z" transform="translate(21.232 0)" fill="none" stroke="#979797" stroke-linecap="round" stroke-linejoin="round" stroke-width="3"/>
    </g>
    <path id="Icon_feather-bookmark" data-name="Icon feather-bookmark" d="M52.32,67.268,26.16,48.583,0,67.268V7.474A7.474,7.474,0,0,1,7.474,0H44.845A7.474,7.474,0,0,1,52.32,7.474Z" transform="matrix(0.839, 0.545, -0.545, 0.839, 1409.766, 547.18)" fill="none" stroke="#43d7e2" stroke-linecap="round" stroke-linejoin="round" stroke-width="3"/>
  </g>
</svg>
